<svg xmlns="http://www.w3.org/2000/svg" xmlns:xlink="http://www.w3.org/1999/xlink" width="500" zoomAndPan="magnify" viewBox="0 0 375 239.999995" height="320" preserveAspectRatio="xMidYMid meet" version="1.0"><defs><g/><clipPath id="051e72057d"><path d="M 86 16.042969 L 280.734375 16.042969 L 280.734375 144.292969 L 86 144.292969 Z M 86 16.042969 " clip-rule="nonzero"/></clipPath></defs><g clip-path="url(#051e72057d)"><path fill="#057fff" d="M 153.730469 21.992188 C 115.765625 35.253906 87.875 70.644531 86.1875 113.261719 C 85.765625 123.960938 87.03125 134.339844 89.738281 144.140625 L 90.054688 144.03125 C 87.386719 134.375 86.167969 124.136719 86.640625 113.574219 C 86.742188 111.273438 86.929688 108.996094 87.1875 106.742188 C 94.96875 107.992188 102.886719 108.792969 110.917969 109.140625 C 111.652344 118.078125 113.320312 126.855469 115.785156 135.289062 L 116.015625 135.210938 C 113.558594 126.8125 111.929688 118.070312 111.25 109.15625 C 117.835938 109.429688 124.496094 109.394531 131.214844 109.03125 C 135.707031 108.785156 140.152344 108.394531 144.558594 107.867188 C 145.851562 113.300781 147.335938 118.695312 149 124.003906 L 149.132812 123.957031 C 147.472656 118.660156 145.988281 113.273438 144.707031 107.847656 C 158.558594 106.183594 171.957031 103.15625 184.773438 98.910156 L 191.523438 118.078125 L 185.089844 98.804688 C 197.597656 94.636719 209.546875 89.3125 220.820312 82.953125 C 222.929688 87.691406 224.917969 92.578125 226.75 97.585938 L 226.882812 97.539062 C 225.046875 92.527344 223.058594 87.628906 220.953125 82.878906 C 230.027344 77.753906 238.664062 71.960938 246.800781 65.570312 C 251 72.277344 254.632812 79.503906 257.589844 87.105469 L 257.835938 87.023438 C 254.867188 79.386719 251.238281 72.121094 247.054688 65.367188 C 252.5625 61.027344 257.839844 56.414062 262.863281 51.546875 C 270.105469 59.769531 275.980469 69.179688 280.144531 79.441406 L 280.472656 79.332031 C 266.023438 43.769531 231.816406 18.074219 190.96875 16.457031 C 180.6875 16.050781 170.710938 17.199219 161.257812 19.691406 C 160.449219 19.882812 159.648438 20.09375 158.851562 20.320312 C 158.234375 20.46875 157.628906 20.652344 157.039062 20.867188 C 156.992188 20.882812 156.945312 20.90625 156.898438 20.921875 C 156.476562 21.0625 156.054688 21.195312 155.636719 21.34375 C 155.554688 21.371094 155.472656 21.40625 155.390625 21.4375 C 154.839844 21.617188 154.28125 21.796875 153.730469 21.992188 Z M 157.085938 22.613281 C 157.328125 22.535156 157.570312 22.460938 157.8125 22.386719 L 161.882812 33.9375 C 155.875 35.871094 149.820312 37.367188 143.753906 38.445312 C 146.773438 30.382812 151.308594 24.910156 157.085938 22.613281 Z M 159.417969 21.898438 C 159.5625 21.855469 159.710938 21.820312 159.859375 21.777344 C 164.035156 20.898438 168.761719 21.515625 173.960938 23.839844 C 175.804688 24.664062 177.65625 25.6875 179.515625 26.878906 C 174.53125 29.285156 169.355469 31.417969 163.992188 33.242188 C 163.753906 33.324219 163.515625 33.394531 163.28125 33.472656 Z M 150.171875 25.40625 C 147.070312 28.578125 144.550781 33.039062 142.707031 38.625 C 138.855469 39.277344 134.996094 39.761719 131.144531 40.078125 C 136.621094 33.859375 143.035156 28.886719 150.171875 25.40625 Z M 167.023438 20.246094 C 172.546875 19.460938 178.332031 19.460938 184.316406 20.320312 C 186.160156 20.585938 187.992188 20.9375 189.8125 21.351562 C 186.785156 23.148438 183.675781 24.839844 180.484375 26.410156 C 178.160156 24.785156 175.832031 23.4375 173.527344 22.386719 C 171.265625 21.355469 169.097656 20.648438 167.023438 20.246094 Z M 140.21875 29.667969 C 136.242188 32.671875 132.578125 36.207031 129.289062 40.226562 C 127.460938 40.355469 125.640625 40.4375 123.820312 40.492188 C 128.90625 36.382812 134.398438 32.75 140.21875 29.667969 Z M 178.644531 18.292969 C 182.8125 17.921875 187.042969 17.789062 191.332031 17.9375 C 192.550781 17.980469 193.769531 18.050781 194.976562 18.132812 C 193.792969 18.910156 192.59375 19.671875 191.382812 20.414062 C 188.917969 19.757812 186.425781 19.230469 183.917969 18.855469 C 182.140625 18.589844 180.382812 18.410156 178.644531 18.292969 Z M 122.226562 41.804688 C 124.222656 41.773438 126.222656 41.699219 128.222656 41.578125 C 124.476562 46.394531 121.238281 51.855469 118.59375 57.863281 C 114.886719 57.726562 111.203125 57.453125 107.546875 57.046875 C 111.894531 51.472656 116.816406 46.359375 122.226562 41.804688 Z M 197.070312 18.300781 C 205.429688 19.058594 213.460938 20.820312 221.058594 23.464844 C 218.355469 25.679688 215.574219 27.816406 212.714844 29.847656 C 206.457031 25.929688 199.871094 22.886719 193.070312 20.886719 C 194.421875 20.046875 195.757812 19.1875 197.070312 18.300781 Z M 129.957031 41.472656 C 129.957031 41.46875 129.960938 41.472656 129.964844 41.46875 C 134.0625 41.171875 138.167969 40.683594 142.273438 40.007812 C 140.78125 44.964844 139.789062 50.738281 139.34375 57.222656 C 132.726562 57.875 126.144531 58.09375 119.632812 57.898438 C 122.472656 51.796875 125.941406 46.289062 129.957031 41.472656 Z M 191.605469 21.789062 C 198.648438 23.605469 205.46875 26.527344 211.9375 30.398438 C 206.679688 34.089844 201.15625 37.453125 195.394531 40.480469 C 190.890625 35.148438 186.277344 30.675781 181.660156 27.265625 C 185.070312 25.566406 188.390625 23.738281 191.605469 21.789062 Z M 143.261719 39.835938 C 149.625 38.742188 155.984375 37.1875 162.300781 35.148438 L 168.09375 51.585938 C 163.417969 52.976562 158.632812 54.160156 153.746094 55.117188 C 149.109375 56.023438 144.476562 56.699219 139.867188 57.171875 C 140.425781 50.585938 141.582031 44.769531 143.261719 39.835938 Z M 180.757812 27.699219 C 185.523438 30.964844 190.289062 35.378906 194.941406 40.722656 C 186.816406 44.957031 178.21875 48.492188 169.203125 51.25 L 163.679688 34.691406 C 163.914062 34.613281 164.148438 34.542969 164.382812 34.460938 C 170.054688 32.535156 175.511719 30.265625 180.757812 27.699219 Z M 107.050781 57.691406 C 110.78125 58.082031 114.542969 58.335938 118.328125 58.457031 C 115.261719 65.574219 113.03125 73.445312 111.75 81.917969 C 105.808594 81.597656 99.917969 80.972656 94.089844 80.066406 C 97.4375 72.019531 101.816406 64.515625 107.050781 57.691406 Z M 221.660156 23.671875 C 228.960938 26.265625 235.84375 29.679688 242.21875 33.789062 C 238.441406 37.394531 234.492188 40.839844 230.382812 44.109375 C 225.027344 38.703125 219.242188 33.992188 213.140625 30.121094 C 216.058594 28.0625 218.902344 25.917969 221.660156 23.675781 Z M 119.355469 58.484375 C 125.945312 58.652344 132.609375 58.402344 139.308594 57.710938 C 138.855469 64.75 139.042969 72.613281 139.929688 81.164062 C 130.664062 82.164062 121.441406 82.410156 112.328125 81.949219 C 113.726562 73.453125 116.117188 65.582031 119.355469 58.484375 Z M 212.375 30.65625 C 218.601562 34.433594 224.496094 39.085938 229.949219 44.457031 C 223.226562 49.777344 216.078125 54.636719 208.53125 58.964844 C 204.425781 52.210938 200.097656 46.085938 195.664062 40.796875 C 201.480469 37.753906 207.054688 34.363281 212.375 30.65625 Z M 139.832031 57.648438 C 144.308594 57.171875 148.796875 56.503906 153.296875 55.625 C 158.386719 54.632812 163.359375 53.394531 168.222656 51.9375 L 175.808594 73.472656 C 171.839844 74.765625 167.796875 75.929688 163.679688 76.953125 C 155.855469 78.898438 148.011719 80.277344 140.203125 81.128906 C 139.375 72.542969 139.269531 64.667969 139.832031 57.648438 Z M 195.214844 41.027344 C 199.726562 46.246094 204.128906 52.339844 208.296875 59.09375 C 198.367188 64.765625 187.757812 69.527344 176.546875 73.234375 L 169.328125 51.601562 C 178.382812 48.824219 187.035156 45.269531 195.214844 41.027344 Z M 93.738281 80.945312 C 99.640625 81.824219 105.613281 82.421875 111.632812 82.699219 C 110.621094 89.738281 110.261719 97.1875 110.640625 104.953125 C 110.695312 106.144531 110.777344 107.324219 110.867188 108.507812 C 102.886719 108.117188 95.007812 107.253906 87.269531 105.953125 C 88.339844 97.210938 90.550781 88.828125 93.738281 80.945312 Z M 242.773438 34.144531 C 249.957031 38.84375 256.46875 44.445312 262.160156 50.769531 C 257.210938 55.640625 252.007812 60.257812 246.578125 64.609375 C 241.925781 57.214844 236.617188 50.441406 230.785156 44.496094 C 234.941406 41.21875 238.945312 37.757812 242.773438 34.144531 Z M 112.203125 82.722656 C 121.375 83.117188 130.660156 82.804688 139.988281 81.746094 C 140.425781 85.808594 141.011719 90.019531 141.769531 94.375 C 142.523438 98.714844 143.417969 103.054688 144.433594 107.375 C 140.292969 107.859375 136.113281 108.210938 131.890625 108.441406 C 124.929688 108.820312 118.03125 108.839844 111.207031 108.515625 C 111.132812 107.445312 111.058594 106.367188 111.011719 105.289062 C 110.660156 97.402344 111.085938 89.847656 112.203125 82.722656 Z M 230.351562 44.851562 C 236.257812 50.726562 241.632812 57.445312 246.320312 64.8125 C 238.253906 71.253906 229.6875 77.09375 220.671875 82.261719 C 217.015625 74.082031 213.011719 66.371094 208.757812 59.335938 C 216.355469 55.007812 223.566406 50.167969 230.351562 44.851562 Z M 140.253906 81.714844 C 147.882812 80.835938 155.535156 79.464844 163.183594 77.5625 C 167.515625 76.484375 171.769531 75.25 175.945312 73.878906 L 184.597656 98.433594 C 171.8125 102.703125 158.429688 105.722656 144.585938 107.351562 C 143.609375 103.164062 142.753906 98.957031 142.035156 94.75 C 141.265625 90.246094 140.675781 85.898438 140.257812 81.714844 Z M 208.523438 59.46875 C 212.820312 66.464844 216.863281 74.160156 220.535156 82.335938 C 209.3125 88.757812 197.40625 94.132812 184.925781 98.324219 L 176.6875 73.636719 C 187.910156 69.902344 198.550781 65.132812 208.523438 59.46875 Z M 208.523438 59.46875 " fill-opacity="1" fill-rule="nonzero"/></g><g fill="#000000" fill-opacity="1"><g transform="translate(217.483056, 182.289204)"><g><path d="M 15.5625 -103.78125 L 94.875 -103.78125 L 94.875 -97.109375 L 91.921875 -94.140625 L 25.203125 -94.140625 L 25.203125 -57.8125 L 79.3125 -57.8125 L 79.3125 -48.1875 L 25.203125 -48.1875 L 25.203125 -9.640625 L 94.875 -9.640625 L 94.875 0 L 15.5625 0 Z M 15.5625 -103.78125 "/></g></g></g><g fill="#000000" fill-opacity="1"><g transform="translate(57.951503, 210.591845)"><g><path d="M 3.65625 0 C 2.914062 0 2.328125 -0.207031 1.890625 -0.625 C 1.460938 -1.050781 1.25 -1.597656 1.25 -2.265625 L 1.25 -8.640625 C 1.25 -9.304688 1.460938 -9.847656 1.890625 -10.265625 C 2.328125 -10.691406 2.914062 -10.90625 3.65625 -10.90625 L 7.484375 -10.90625 L 7.484375 -10.203125 L 7.171875 -9.890625 L 3.65625 -9.890625 C 3.300781 -9.890625 3.003906 -9.769531 2.765625 -9.53125 C 2.535156 -9.289062 2.421875 -8.992188 2.421875 -8.640625 L 2.421875 -2.265625 C 2.421875 -1.910156 2.535156 -1.613281 2.765625 -1.375 C 3.003906 -1.132812 3.300781 -1.015625 3.65625 -1.015625 L 6.625 -1.015625 L 6.625 -5.921875 L 7.78125 -5.921875 L 7.78125 0 Z M 3.65625 0 "/></g></g></g><g fill="#000000" fill-opacity="1"><g transform="translate(71.276191, 210.591845)"><g><path d="M 1.5625 -10.90625 L 2.71875 -10.90625 L 2.71875 -1.015625 L 7.5625 -1.015625 L 7.5625 0 L 1.5625 0 Z M 1.5625 -10.90625 "/></g></g></g><g fill="#000000" fill-opacity="1"><g transform="translate(83.276203, 210.591845)"><g><path d="M 3.65625 0.15625 C 2.914062 0.15625 2.328125 -0.0507812 1.890625 -0.46875 C 1.460938 -0.894531 1.25 -1.441406 1.25 -2.109375 L 1.25 -8.796875 C 1.25 -9.460938 1.460938 -10.003906 1.890625 -10.421875 C 2.328125 -10.847656 2.914062 -11.0625 3.65625 -11.0625 L 5.84375 -11.0625 C 6.59375 -11.0625 7.179688 -10.847656 7.609375 -10.421875 C 8.035156 -10.003906 8.25 -9.460938 8.25 -8.796875 L 8.25 -2.109375 C 8.25 -1.441406 8.035156 -0.894531 7.609375 -0.46875 C 7.179688 -0.0507812 6.59375 0.15625 5.84375 0.15625 Z M 5.84375 -0.859375 C 6.195312 -0.859375 6.492188 -0.976562 6.734375 -1.21875 C 6.972656 -1.457031 7.09375 -1.753906 7.09375 -2.109375 L 7.09375 -8.796875 C 7.09375 -9.148438 6.972656 -9.445312 6.734375 -9.6875 C 6.492188 -9.925781 6.195312 -10.046875 5.84375 -10.046875 L 3.65625 -10.046875 C 3.300781 -10.046875 3.003906 -9.925781 2.765625 -9.6875 C 2.535156 -9.445312 2.421875 -9.148438 2.421875 -8.796875 L 2.421875 -2.109375 C 2.421875 -1.753906 2.535156 -1.457031 2.765625 -1.21875 C 3.003906 -0.976562 3.300781 -0.859375 3.65625 -0.859375 Z M 5.84375 -0.859375 "/></g></g></g><g fill="#000000" fill-opacity="1"><g transform="translate(97.068432, 210.591845)"><g><path d="M 1.5625 -10.90625 L 5.375 -10.90625 C 6.125 -10.90625 6.710938 -10.691406 7.140625 -10.265625 C 7.566406 -9.847656 7.78125 -9.304688 7.78125 -8.640625 L 7.78125 -7.40625 C 7.78125 -7.050781 7.722656 -6.769531 7.609375 -6.5625 C 7.503906 -6.363281 7.382812 -6.207031 7.25 -6.09375 C 7.082031 -5.96875 6.898438 -5.882812 6.703125 -5.84375 L 6.703125 -5.765625 C 6.992188 -5.710938 7.253906 -5.613281 7.484375 -5.46875 C 7.679688 -5.34375 7.859375 -5.15625 8.015625 -4.90625 C 8.171875 -4.664062 8.25 -4.328125 8.25 -3.890625 L 8.25 -2.265625 C 8.25 -1.597656 8.035156 -1.050781 7.609375 -0.625 C 7.179688 -0.207031 6.59375 0 5.84375 0 L 1.5625 0 Z M 5.84375 -1.015625 C 6.195312 -1.015625 6.492188 -1.132812 6.734375 -1.375 C 6.972656 -1.613281 7.09375 -1.910156 7.09375 -2.265625 L 7.09375 -3.890625 C 7.09375 -4.242188 6.972656 -4.539062 6.734375 -4.78125 C 6.492188 -5.019531 6.195312 -5.140625 5.84375 -5.140625 L 2.71875 -5.140625 L 2.71875 -1.015625 Z M 5.375 -6.15625 C 5.726562 -6.15625 6.023438 -6.273438 6.265625 -6.515625 C 6.503906 -6.753906 6.625 -7.050781 6.625 -7.40625 L 6.625 -8.640625 C 6.625 -8.992188 6.503906 -9.289062 6.265625 -9.53125 C 6.023438 -9.769531 5.726562 -9.890625 5.375 -9.890625 L 2.71875 -9.890625 L 2.71875 -6.15625 Z M 5.375 -6.15625 "/></g></g></g><g fill="#000000" fill-opacity="1"><g transform="translate(110.393122, 210.591845)"><g><path d="M 0.234375 -0.46875 C 0.535156 -1.5 0.828125 -2.472656 1.109375 -3.390625 C 1.390625 -4.304688 1.660156 -5.191406 1.921875 -6.046875 C 2.179688 -6.898438 2.429688 -7.722656 2.671875 -8.515625 C 2.921875 -9.316406 3.171875 -10.113281 3.421875 -10.90625 L 4.75 -10.90625 C 5 -10.113281 5.25 -9.316406 5.5 -8.515625 C 5.75 -7.722656 6.003906 -6.898438 6.265625 -6.046875 C 6.523438 -5.191406 6.796875 -4.304688 7.078125 -3.390625 C 7.359375 -2.472656 7.644531 -1.5 7.9375 -0.46875 L 7.9375 0 L 6.859375 0 L 6 -2.796875 L 2.1875 -2.796875 L 1.328125 0 L 0.234375 0 Z M 5.6875 -3.8125 L 4.125 -8.953125 L 4.046875 -8.953125 L 2.5 -3.8125 Z M 5.6875 -3.8125 "/></g></g></g><g fill="#000000" fill-opacity="1"><g transform="translate(122.860679, 210.591845)"><g><path d="M 1.5625 -10.90625 L 2.71875 -10.90625 L 2.71875 -1.015625 L 7.5625 -1.015625 L 7.5625 0 L 1.5625 0 Z M 1.5625 -10.90625 "/></g></g></g><g fill="#000000" fill-opacity="1"><g transform="translate(134.860693, 210.591845)"><g/></g></g><g fill="#000000" fill-opacity="1"><g transform="translate(142.341227, 210.591845)"><g><path d="M 0.234375 -10.4375 L 0.234375 -10.90625 L 1.40625 -10.90625 L 3.890625 -1.640625 L 3.96875 -1.640625 L 6.46875 -10.90625 L 7.640625 -10.90625 L 7.640625 -10.4375 L 4.671875 0 L 3.1875 0 Z M 0.234375 -10.4375 "/></g></g></g><g fill="#000000" fill-opacity="1"><g transform="translate(154.497089, 210.591845)"><g><path d="M 1.5625 -10.90625 L 2.71875 -10.90625 L 2.71875 0 L 1.5625 0 Z M 1.5625 -10.90625 "/></g></g></g><g fill="#000000" fill-opacity="1"><g transform="translate(163.068527, 210.591845)"><g><path d="M 1.5625 -10.90625 L 5.6875 -10.90625 C 6.4375 -10.90625 7.023438 -10.691406 7.453125 -10.265625 C 7.878906 -9.847656 8.09375 -9.304688 8.09375 -8.640625 L 8.09375 -6.546875 C 8.09375 -6.078125 8.003906 -5.695312 7.828125 -5.40625 C 7.648438 -5.125 7.457031 -4.90625 7.25 -4.75 C 6.988281 -4.5625 6.703125 -4.429688 6.390625 -4.359375 L 8.328125 -0.46875 L 8.328125 0 L 7.171875 0 L 5.21875 -4.28125 L 2.71875 -4.28125 L 2.71875 0 L 1.5625 0 Z M 5.6875 -5.296875 C 6.039062 -5.296875 6.335938 -5.414062 6.578125 -5.65625 C 6.816406 -5.894531 6.9375 -6.191406 6.9375 -6.546875 L 6.9375 -8.640625 C 6.9375 -8.992188 6.816406 -9.289062 6.578125 -9.53125 C 6.335938 -9.769531 6.039062 -9.890625 5.6875 -9.890625 L 2.71875 -9.890625 L 2.71875 -5.296875 Z M 5.6875 -5.296875 "/></g></g></g><g fill="#000000" fill-opacity="1"><g transform="translate(176.471141, 210.591845)"><g><path d="M 3.03125 -9.890625 L 0.15625 -9.890625 L 0.15625 -10.90625 L 7.09375 -10.90625 L 7.09375 -10.203125 L 6.78125 -9.890625 L 4.203125 -9.890625 L 4.203125 0 L 3.03125 0 Z M 3.03125 -9.890625 "/></g></g></g><g fill="#000000" fill-opacity="1"><g transform="translate(188.003626, 210.591845)"><g><path d="M 3.96875 0.15625 C 3.21875 0.15625 2.628906 -0.0507812 2.203125 -0.46875 C 1.773438 -0.894531 1.5625 -1.441406 1.5625 -2.109375 L 1.5625 -10.90625 L 2.71875 -10.90625 L 2.71875 -2.109375 C 2.71875 -1.753906 2.835938 -1.457031 3.078125 -1.21875 C 3.316406 -0.976562 3.613281 -0.859375 3.96875 -0.859375 L 5.84375 -0.859375 C 6.195312 -0.859375 6.492188 -0.976562 6.734375 -1.21875 C 6.972656 -1.457031 7.09375 -1.753906 7.09375 -2.109375 L 7.09375 -10.90625 L 8.25 -10.90625 L 8.25 -2.109375 C 8.25 -1.441406 8.035156 -0.894531 7.609375 -0.46875 C 7.179688 -0.0507812 6.59375 0.15625 5.84375 0.15625 Z M 3.96875 0.15625 "/></g></g></g><g fill="#000000" fill-opacity="1"><g transform="translate(202.107532, 210.591845)"><g><path d="M 0.234375 -0.46875 C 0.535156 -1.5 0.828125 -2.472656 1.109375 -3.390625 C 1.390625 -4.304688 1.660156 -5.191406 1.921875 -6.046875 C 2.179688 -6.898438 2.429688 -7.722656 2.671875 -8.515625 C 2.921875 -9.316406 3.171875 -10.113281 3.421875 -10.90625 L 4.75 -10.90625 C 5 -10.113281 5.25 -9.316406 5.5 -8.515625 C 5.75 -7.722656 6.003906 -6.898438 6.265625 -6.046875 C 6.523438 -5.191406 6.796875 -4.304688 7.078125 -3.390625 C 7.359375 -2.472656 7.644531 -1.5 7.9375 -0.46875 L 7.9375 0 L 6.859375 0 L 6 -2.796875 L 2.1875 -2.796875 L 1.328125 0 L 0.234375 0 Z M 5.6875 -3.8125 L 4.125 -8.953125 L 4.046875 -8.953125 L 2.5 -3.8125 Z M 5.6875 -3.8125 "/></g></g></g><g fill="#000000" fill-opacity="1"><g transform="translate(214.575082, 210.591845)"><g><path d="M 1.5625 -10.90625 L 2.71875 -10.90625 L 2.71875 -1.015625 L 7.5625 -1.015625 L 7.5625 0 L 1.5625 0 Z M 1.5625 -10.90625 "/></g></g></g><g fill="#000000" fill-opacity="1"><g transform="translate(226.575088, 210.591845)"><g/></g></g><g fill="#000000" fill-opacity="1"><g transform="translate(234.055615, 210.591845)"><g><path d="M 1.5625 -10.90625 L 7.640625 -10.90625 L 7.640625 -10.203125 L 7.328125 -9.890625 L 2.71875 -9.890625 L 2.71875 -6.078125 L 6.390625 -6.078125 L 6.390625 -5.0625 L 2.71875 -5.0625 L 2.71875 -1.015625 L 7.640625 -1.015625 L 7.640625 0 L 1.5625 0 Z M 1.5625 -10.90625 "/></g></g></g><g fill="#000000" fill-opacity="1"><g transform="translate(246.445241, 210.591845)"><g><path d="M 0.234375 -0.46875 L 3.03125 -5.609375 L 0.546875 -10.4375 L 0.546875 -10.90625 L 1.71875 -10.90625 L 3.890625 -6.546875 L 3.96875 -6.546875 L 6.15625 -10.90625 L 7.328125 -10.90625 L 7.328125 -10.4375 L 4.828125 -5.609375 L 7.640625 -0.46875 L 7.640625 0 L 6.46875 0 L 3.96875 -4.59375 L 3.890625 -4.59375 L 1.40625 0 L 0.234375 0 Z M 0.234375 -0.46875 "/></g></g></g><g fill="#000000" fill-opacity="1"><g transform="translate(258.601095, 210.591845)"><g><path d="M 1.5625 -10.90625 L 5.6875 -10.90625 C 6.4375 -10.90625 7.023438 -10.691406 7.453125 -10.265625 C 7.878906 -9.847656 8.09375 -9.304688 8.09375 -8.640625 L 8.09375 -5.921875 C 8.09375 -5.253906 7.878906 -4.707031 7.453125 -4.28125 C 7.023438 -3.863281 6.4375 -3.65625 5.6875 -3.65625 L 2.71875 -3.65625 L 2.71875 0 L 1.5625 0 Z M 5.6875 -4.671875 C 6.039062 -4.671875 6.335938 -4.789062 6.578125 -5.03125 C 6.816406 -5.269531 6.9375 -5.566406 6.9375 -5.921875 L 6.9375 -8.640625 C 6.9375 -8.992188 6.816406 -9.289062 6.578125 -9.53125 C 6.335938 -9.769531 6.039062 -9.890625 5.6875 -9.890625 L 2.71875 -9.890625 L 2.71875 -4.671875 Z M 5.6875 -4.671875 "/></g></g></g><g fill="#000000" fill-opacity="1"><g transform="translate(271.925778, 210.591845)"><g><path d="M 1.5625 -10.90625 L 7.640625 -10.90625 L 7.640625 -10.203125 L 7.328125 -9.890625 L 2.71875 -9.890625 L 2.71875 -6.078125 L 6.390625 -6.078125 L 6.390625 -5.0625 L 2.71875 -5.0625 L 2.71875 -1.015625 L 7.640625 -1.015625 L 7.640625 0 L 1.5625 0 Z M 1.5625 -10.90625 "/></g></g></g><g fill="#000000" fill-opacity="1"><g transform="translate(284.315403, 210.591845)"><g><path d="M 1.5625 -10.90625 L 5.6875 -10.90625 C 6.4375 -10.90625 7.023438 -10.691406 7.453125 -10.265625 C 7.878906 -9.847656 8.09375 -9.304688 8.09375 -8.640625 L 8.09375 -6.546875 C 8.09375 -6.078125 8.003906 -5.695312 7.828125 -5.40625 C 7.648438 -5.125 7.457031 -4.90625 7.25 -4.75 C 6.988281 -4.5625 6.703125 -4.429688 6.390625 -4.359375 L 8.328125 -0.46875 L 8.328125 0 L 7.171875 0 L 5.21875 -4.28125 L 2.71875 -4.28125 L 2.71875 0 L 1.5625 0 Z M 5.6875 -5.296875 C 6.039062 -5.296875 6.335938 -5.414062 6.578125 -5.65625 C 6.816406 -5.894531 6.9375 -6.191406 6.9375 -6.546875 L 6.9375 -8.640625 C 6.9375 -8.992188 6.816406 -9.289062 6.578125 -9.53125 C 6.335938 -9.769531 6.039062 -9.890625 5.6875 -9.890625 L 2.71875 -9.890625 L 2.71875 -5.296875 Z M 5.6875 -5.296875 "/></g></g></g><g fill="#000000" fill-opacity="1"><g transform="translate(297.71801, 210.591845)"><g><path d="M 3.03125 -9.890625 L 0.15625 -9.890625 L 0.15625 -10.90625 L 7.09375 -10.90625 L 7.09375 -10.203125 L 6.78125 -9.890625 L 4.203125 -9.890625 L 4.203125 0 L 3.03125 0 Z M 3.03125 -9.890625 "/></g></g></g><g fill="#000000" fill-opacity="1"><g transform="translate(309.250488, 210.591845)"><g><path d="M 0.703125 -1.015625 L 4.671875 -1.015625 C 5.023438 -1.015625 5.320312 -1.132812 5.5625 -1.375 C 5.800781 -1.613281 5.921875 -1.910156 5.921875 -2.265625 L 5.921875 -3.578125 C 5.921875 -3.929688 5.84375 -4.191406 5.6875 -4.359375 C 5.53125 -4.535156 5.296875 -4.664062 4.984375 -4.75 L 2.5 -5.375 C 2.03125 -5.488281 1.640625 -5.722656 1.328125 -6.078125 C 1.015625 -6.441406 0.859375 -6.9375 0.859375 -7.5625 L 0.859375 -8.640625 C 0.859375 -9.304688 1.070312 -9.847656 1.5 -10.265625 C 1.9375 -10.691406 2.523438 -10.90625 3.265625 -10.90625 L 6.859375 -10.90625 L 6.859375 -10.203125 L 6.546875 -9.890625 L 3.265625 -9.890625 C 2.910156 -9.890625 2.613281 -9.769531 2.375 -9.53125 C 2.144531 -9.289062 2.03125 -8.992188 2.03125 -8.640625 L 2.03125 -7.5625 C 2.03125 -7.207031 2.109375 -6.941406 2.265625 -6.765625 C 2.421875 -6.597656 2.648438 -6.472656 2.953125 -6.390625 L 5.453125 -5.765625 C 5.921875 -5.648438 6.3125 -5.410156 6.625 -5.046875 C 6.9375 -4.691406 7.09375 -4.203125 7.09375 -3.578125 L 7.09375 -2.265625 C 7.09375 -1.597656 6.875 -1.050781 6.4375 -0.625 C 6.007812 -0.207031 5.421875 0 4.671875 0 L 0.703125 0 Z M 0.703125 -1.015625 "/></g></g></g><g fill="#000000" fill-opacity="1"><g transform="translate(45.18813, 182.289204)"><g><path d="M 36.328125 0 C 29.203125 0 23.460938 -2.171875 19.109375 -6.515625 C 14.765625 -10.867188 12.59375 -16.601562 12.59375 -23.71875 L 12.59375 -80.0625 C 12.59375 -87.175781 14.765625 -92.90625 19.109375 -97.25 C 23.460938 -101.601562 29.203125 -103.78125 36.328125 -103.78125 L 96.359375 -103.78125 L 96.359375 -97.109375 L 93.390625 -94.140625 L 37.0625 -94.140625 C 27.175781 -94.140625 22.234375 -89.195312 22.234375 -79.3125 L 22.234375 -24.46875 C 22.234375 -14.582031 27.175781 -9.640625 37.0625 -9.640625 L 92.65625 -9.640625 L 92.65625 -55.59375 L 102.296875 -55.59375 L 102.296875 0 Z M 36.328125 0 "/></g></g></g><g fill="#000000" fill-opacity="1"><g transform="translate(133.752318, 182.289204)"><g><path d="M 4.453125 -98.59375 L 4.453125 -103.78125 L 13.34375 -103.78125 L 53.375 -11.125 L 54.109375 -11.125 L 94.140625 -103.78125 L 103.03125 -103.78125 L 103.03125 -98.59375 L 59.296875 0 L 48.1875 0 Z M 4.453125 -98.59375 "/></g></g></g></svg>